<?xml version="1.0" encoding="UTF-8" standalone="no"?>
<svg width="75px" height="88px" viewBox="0 0 75 88" version="1.1" xmlns="http://www.w3.org/2000/svg" xmlns:xlink="http://www.w3.org/1999/xlink">
    <!-- Generator: Sketch 39.1 (31720) - http://www.bohemiancoding.com/sketch -->
    <title>AP_RGB</title>
    <desc>Created with Sketch.</desc>
    <defs>
        <polygon id="path-1" points="0 87.0434084 75 87.0434084 75 0.23778135 0 0.23778135"></polygon>
    </defs>
    <g id="Page-1" stroke="none" stroke-width="1" fill="none" fill-rule="evenodd">
        <g id="AP_RGB">
            <g id="Group-4">
                <mask id="mask-2" fill="white">
                    <use xlink:href="#path-1"></use>
                </mask>
                <g id="Clip-2"></g>
                <polygon id="Fill-1" fill="#FFFFFF" mask="url(#mask-2)" points="0.000723472669 77.9937299 75 77.9937299 75 0.23778135 0.000723472669 0.23778135"></polygon>
                <polyline id="Fill-3" fill="#FF322E" mask="url(#mask-2)" points="0 77.9937299 75 77.9937299 75 87.0578778 0.000723472669 87.0578778 0 77.9937299"></polyline>
            </g>
            <polyline id="Fill-5" fill="#000000" points="17.2632637 20.6990354 4.6562701 58.5147106 13.7840836 58.5147106 22.3471061 31.7852894 26.6389871 45.1485531 21.0870579 45.1485531 18.8698553 52.7768489 29.0889068 52.7768489 30.9315916 58.5147106 40.3203376 58.5147106 27.714791 20.6990354 17.2632637 20.6990354"></polyline>
            <path d="M54.6639068,20.6990354 L41.5589228,20.6990354 L41.5589228,58.5147106 L50.6216238,58.5147106 L50.6216238,28.3275723 L54.2734727,28.3275723 C58.5108521,28.3275723 60.9233923,30.3482315 60.9233923,33.9995981 C60.9233923,37.5856109 58.5108521,39.6721061 54.2734727,39.6721061 L53.6867363,39.6721061 L53.6867363,47.3004019 L54.6639068,47.3004019 C64.4438103,47.3004019 70.1814309,42.3774116 70.1814309,33.9995981 C70.1814309,25.4585209 64.4438103,20.6990354 54.6639068,20.6990354" id="Fill-6" fill="#000000"></path>
        </g>
    </g>
</svg>